<svg height="496pt" viewBox="0 0 496 496.002" width="496pt" xmlns="http://www.w3.org/2000/svg"><path d="m488 416.003906h-104v-48h40c4.417969 0 8-3.578125 8-8v-32c0-4.425781-3.582031-8-8-8h-128c-4.414062 0-8 3.574219-8 8v32c0 4.421875 3.585938 8 8 8h40v48h-132.6875l-59.230469-59.234375c.632813-59.945312 18.65625-117.085937 51.71875-165.65625l78.542969 78.542969c1.5625 1.5625 3.609375 2.347656 5.65625 2.347656 2.050781 0 4.097656-.785156 5.65625-2.347656l10.34375-10.34375 26.34375 26.34375c1.5625 1.5625 3.609375 2.347656 5.65625 2.347656 2.050781 0 4.097656-.785156 5.65625-2.347656l48-48c3.128906-3.125 3.128906-8.183594 0-11.308594l-26.34375-26.34375 10.34375-10.347656c3.128906-3.125 3.128906-8.183594 0-11.308594l-160-160c-3.128906-3.128906-8.183594-3.128906-11.3125 0l-10.34375 10.34375-26.34375-26.34375c-3.128906-3.128906-8.183594-3.128906-11.3125 0l-48 48c-3.125 3.125-3.125 8.183594 0 11.308594l26.34375 26.347656-10.34375 10.34375c-3.125 3.125-3.125 8.183594 0 11.308594l34.546875 34.546875c-54.019531 58.007813-83.976563 132.855469-84.800781 212.40625l-61.730469 61.730469c-1.460937 1.445312-2.359375 3.445312-2.359375 5.664062v64c0 4.421875 3.585938 8 8 8h480c4.417969 0 8-3.578125 8-8v-64c0-4.425781-3.582031-8-8-8zm-184-80h112v16h-112zm48 32h16v48h-16zm-276.6875 0h57.375l48 48h-153.375zm162.34375-237.65625-32-32c-3.128906-3.128906-8.183594-3.128906-11.3125 0l-34.34375 34.34375-8.6875-8.6875 68.6875-68.691406 104.6875 104.691406-68.6875 68.6875-50.710938-50.714844c8.207032-10.765624 17.136719-21.085937 26.871094-30.832031l5.496094-5.496093c3.128906-3.117188 3.128906-8.175782 0-11.300782zm127.03125 101.65625-36.6875 36.6875-20.6875-20.6875 36.6875-36.691406zm-84.6875 20.6875-12.6875-12.6875 68.6875-68.691406 12.6875 12.691406zm-164.6875-196.6875 36.6875-36.691406 20.6875 20.691406-36.6875 36.6875zm84.6875-20.691406 8.6875 8.691406-68.6875 68.6875-8.6875-8.6875zm-31.832031 111.839844 31.832031-31.839844 20.6875 20.691406c-57.886719 57.964844-90.582031 134.390625-92.589844 216h-47.992187c2.007812-77.417968 33.09375-149.890625 88.0625-204.851562zm311.832031 332.851562h-464v-48h464zm0 0"/><path d="m352 16.003906c70.578125 0 128 57.421875 128 128 0 64.925782-48.550781 119.574219-112.925781 127.125l1.855469 15.890625c72.4375-8.496093 127.070312-69.976562 127.070312-143.015625 0-79.402344-64.597656-143.99999975-144-143.99999975-34.117188 0-67.207031 12.14843775-93.175781 34.20703175l10.351562 12.191406c23.082031-19.601563 52.496094-30.398438 82.824219-30.398438zm0 0"/><path d="m393.503906 39.121094c-9.183594-9.183594-25.199218-9.183594-34.382812 0-4.59375 4.59375-7.121094 10.695312-7.121094 17.191406s2.527344 12.601562 7.121094 17.183594l15.375 15.378906c4.59375 4.589844 10.695312 7.117188 17.183594 7.117188 6.496093 0 12.601562-2.527344 17.191406-7.117188 4.601562-4.585938 7.128906-10.6875 7.128906-17.183594s-2.527344-12.601562-7.117188-17.183594zm4.066406 38.449218c-3.144531 3.144532-8.617187 3.144532-11.753906 0l-15.375-15.382812c-1.578125-1.570312-2.441406-3.65625-2.441406-5.875 0-2.214844.863281-4.308594 2.433594-5.878906 1.566406-1.566406 3.664062-2.429688 5.878906-2.429688s4.304688.863282 5.871094 2.429688l15.378906 15.382812c1.574219 1.570313 2.4375 3.65625 2.4375 5.875 0 2.214844-.863281 4.3125-2.429688 5.878906zm0 0"/><path d="m400 167.691406c0 6.496094 2.527344 12.597656 7.121094 17.191406 4.59375 4.589844 10.695312 7.121094 17.191406 7.121094s12.601562-2.53125 17.183594-7.121094l15.375-15.375c4.59375-4.59375 7.121094-10.699218 7.121094-17.1875 0-6.496093-2.527344-12.597656-7.121094-17.191406-9.175782-9.183594-25.199219-9.183594-34.375 0l-15.375 15.378906c-4.59375 4.582032-7.121094 10.6875-7.121094 17.183594zm18.433594-5.875 15.382812-15.375c1.570313-1.574218 3.65625-2.4375 5.871094-2.4375 2.21875 0 4.3125.863282 5.882812 2.429688 1.566407 1.570312 2.429688 3.664062 2.429688 5.878906 0 2.21875-.863281 4.304688-2.429688 5.875l-15.386718 15.375c-3.132813 3.144531-8.605469 3.144531-11.75 0-1.570313-1.558594-2.433594-3.65625-2.433594-5.871094 0-2.21875.863281-4.304687 2.433594-5.875zm0 0"/><path d="m298.34375 89.410156 11.3125 11.3125 3.226562-3.214844c4.589844-4.59375 7.117188-10.699218 7.117188-17.195312s-2.527344-12.597656-7.117188-17.191406c-9.179687-9.183594-25.203124-9.183594-34.378906 0l-3.222656 3.226562 11.3125 11.308594 3.222656-3.222656c3.136719-3.144532 8.609375-3.144532 11.753906 0 1.566407 1.570312 2.429688 3.664062 2.429688 5.878906 0 2.21875-.863281 4.304688-2.429688 5.875zm0 0"/><path d="m373.335938 167.851562c6.777343-6.066406 10.664062-14.761718 10.664062-23.847656 0-17.648437-14.351562-32-32-32-9.085938 0-17.78125 3.886719-23.847656 10.660156l11.921875 10.675782c3.039062-3.394532 7.382812-5.335938 11.925781-5.335938 8.824219 0 16 7.175782 16 16 0 4.542969-1.941406 8.886719-5.335938 11.925782zm0 0"/></svg>